<svg version="1.0" xmlns="http://www.w3.org/2000/svg" width="476.000000" height="236.000000" viewBox="0 0 476.000000 236.000000" preserveAspectRatio="xMidYMid meet"><g transform="translate(0.000000,236.000000) scale(0.100000,-0.100000)" fill="rgb(10,10,10)" stroke="none"><path d="M180 1200 l0 -920 470 0 c307 0 470 3 470 10 0 6 11 10 25 10 14 0 25 5 25 10 0 6 11 10 25 10 14 0 25 5 25 10 0 6 11 10 25 10 14 0 25 5 25 10 0 6 11 10 25 10 14 0 25 5 25 10 0 6 11 10 25 10 14 0 25 5 25 10 0 6 11 10 25 10 14 0 25 5 25 10 0 6 11 10 25 10 14 0 25 5 25 10 0 6 11 10 25 10 25 0 25 -1 25 -80 l0 -80 315 0 c203 0 315 4 315 10 0 6 25 10 55 10 30 0 55 5 55 10 0 6 25 10 55 10 30 0 55 5 55 10 0 6 25 10 55 10 30 0 55 5 55 10 0 6 25 10 55 10 30 0 55 5 55 10 0 6 25 10 55 10 30 0 55 5 55 10 0 6 25 10 55 10 30 0 55 5 55 10 0 6 25 10 55 10 30 0 55 5 55 10 0 6 25 10 55 10 30 0 55 5 55 10 0 6 25 10 55 10 l55 0 0 -90 0 -90 480 0 c313 0 480 3 480 10 0 6 11 10 25 10 14 0 25 5 25 10 0 6 11 10 25 10 14 0 25 5 25 10 0 6 11 10 25 10 14 0 25 5 25 10 0 6 11 10 25 10 14 0 25 5 25 10 0 6 11 10 25 10 14 0 25 5 25 10 0 6 11 10 25 10 14 0 25 5 25 10 0 6 11 10 25 10 14 0 25 5 25 10 0 6 11 10 25 10 14 0 25 5 25 10 0 6 11 10 25 10 14 0 25 5 25 10 0 6 11 10 25 10 l25 0 0 820 0 820 -2210 0 -2210 0 0 -920z m1245 725 l95 -95 0 -170 0 -171 -90 -89 -91 -90 91 -90 90 -89 0 -206 0 -205 -290 0 -290 0 0 220 0 220 -40 0 -40 0 0 -220 0 -220 -300 0 -300 0 0 650 0 650 535 0 535 0 95 -95z m785 77 c0 -10 9 -24 20 -32 11 -8 20 -20 20 -27 0 -7 5 -13 10 -13 6 0 10 -6 10 -13 0 -7 9 -19 20 -27 11 -8 20 -20 20 -27 0 -7 5 -13 10 -13 6 0 10 -5 10 -10 0 -6 11 -22 25 -36 l25 -25 25 25 c14 14 25 30 25 36 0 5 5 10 10 10 6 0 10 6 10 13 0 7 9 19 20 27 11 8 20 20 20 27 0 7 5 13 10 13 6 0 10 6 10 13 0 7 9 19 20 27 11 8 20 22 20 32 0 17 19 18 295 18 l295 0 0 -650 0 -650 -270 0 c-263 0 -270 0 -270 20 0 11 5 20 10 20 6 0 10 23 10 50 0 28 5 50 10 50 6 0 10 18 10 40 0 22 5 40 10 40 6 0 10 23 10 50 0 28 5 50 10 50 6 0 10 18 10 40 0 22 5 40 10 40 6 0 10 23 10 50 0 28 5 50 10 50 6 0 10 18 10 40 0 22 5 40 10 40 6 0 10 9 10 20 0 13 -7 20 -20 20 -11 0 -20 5 -20 10 0 6 -13 10 -30 10 -29 0 -30 -1 -30 -50 0 -27 -4 -50 -10 -50 -5 0 -10 -18 -10 -40 0 -22 -4 -40 -10 -40 -5 0 -10 -22 -10 -50 0 -27 -4 -50 -10 -50 -5 0 -10 -18 -10 -40 0 -22 -4 -40 -10 -40 -5 0 -10 -22 -10 -50 0 -27 -4 -50 -10 -50 -5 0 -10 -18 -10 -40 0 -22 -4 -40 -10 -40 -5 0 -10 -22 -10 -50 l0 -50 -126 0 c-145 0 -154 4 -154 74 0 25 -4 46 -10 46 -5 0 -10 18 -10 40 0 22 -4 40 -10 40 -5 0 -10 23 -10 50 0 28 -4 50 -10 50 -5 0 -10 18 -10 40 0 22 -4 40 -10 40 -5 0 -10 23 -10 50 0 28 -4 50 -10 50 -5 0 -10 23 -10 50 0 28 -4 50 -10 50 -5 0 -10 14 -10 30 0 26 -4 30 -26 30 -14 0 -32 -6 -40 -14 -16 -17 -20 -106 -4 -106 6 0 10 -18 10 -40 0 -22 5 -40 10 -40 6 0 10 -22 10 -50 0 -27 5 -50 10 -50 6 0 10 -18 10 -40 0 -22 5 -40 10 -40 6 0 10 -22 10 -50 0 -27 5 -50 10 -50 6 0 10 -22 10 -50 0 -27 5 -50 10 -50 6 0 10 -13 10 -30 l0 -30 -270 0 -270 0 0 650 0 650 295 0 c276 0 295 -1 295 -18z m1610 -242 l0 -260 50 0 50 0 0 260 0 260 290 0 290 0 0 -258 0 -258 -130 -64 -131 -65 131 -65 130 -65 0 -262 0 -263 -290 0 -290 0 0 220 0 220 -50 0 -50 0 0 -220 0 -220 -290 0 -290 0 0 650 0 650 290 0 290 0 0 -260z"/><path d="M860 1530 l0 -170 40 0 40 0 0 170 0 170 -40 0 -40 0 0 -170z"/></g></svg>